<svg width="116" height="45" viewBox="0 0 116 45" fill="none" xmlns="http://www.w3.org/2000/svg">
<path d="M56.045 22.3932C56.045 10.1578 46.2503 0.235931 34.1716 0.23593C22.093 0.23593 12.2983 10.1578 12.2983 22.3932L2.84617e-06 22.3932C2.84617e-06 22.3932 7.77426 44.5505 34.1716 44.5505C46.2503 44.5505 56.045 34.6287 56.045 22.3932ZM34.1716 15.0965C38.1246 15.0965 41.3749 18.3444 41.3749 22.3932C41.3749 26.3976 38.1685 29.69 34.1716 29.69C30.2186 29.69 26.9683 26.4421 26.9683 22.3932C26.9683 18.3889 30.2186 15.0965 34.1716 15.0965Z" fill="#EF5DA8"/>
<path d="M59.955 22.3933C59.955 34.6287 69.7497 44.5506 81.8284 44.5506C93.907 44.5506 103.702 34.6287 103.702 22.3933L116 22.3933C116 22.3933 108.226 0.235955 81.8284 0.235955C69.7497 0.235954 59.955 10.1578 59.955 22.3933ZM81.8284 29.69C77.8754 29.69 74.6251 26.4421 74.6251 22.3933C74.6251 18.3889 77.8315 15.0965 81.8284 15.0965C85.7814 15.0965 89.0317 18.3444 89.0317 22.3933C89.0317 26.3976 85.7814 29.69 81.8284 29.69Z" fill="#8E43ED"/>
</svg>
